<svg width="137" height="74" viewBox="0 0 137 74" fill="none" xmlns="http://www.w3.org/2000/svg">
<ellipse cx="68.8301" cy="60.8506" rx="68" ry="13" fill="url(#paint0_radial_3326_6637)"/>
<ellipse cx="68.8301" cy="60.8506" rx="63" ry="12" fill="url(#paint1_radial_3326_6637)"/>
<ellipse cx="68.8301" cy="60.8506" rx="59" ry="11" fill="url(#paint2_radial_3326_6637)"/>
<ellipse cx="68.8301" cy="60.8506" rx="55" ry="10" fill="url(#paint3_radial_3326_6637)"/>
<ellipse cx="68.8301" cy="60.8506" rx="50" ry="10" fill="url(#paint4_radial_3326_6637)"/>
<ellipse cx="68.8301" cy="60.8506" rx="50" ry="10" fill="url(#paint5_radial_3326_6637)"/>
<path d="M76.7079 10.566C76.7079 10.566 79.9153 6.5771 90.1784 11.1232L97.4278 22.001C97.4278 22.001 87.4431 12.7278 76.7079 10.566Z" fill="#DB315E"/>
<path d="M64.0585 12.3878C64.0585 12.3878 73.3855 5.75017 86.5929 12.3289C86.5929 12.3289 97.446 18.7025 98.3662 21.5717C99.2865 24.4409 98.0209 28.9857 98.0209 28.9857C98.0209 28.9857 69.7989 12.7404 64.0585 12.3878Z" fill="#FCFAFC"/>
<path d="M101.342 37.4979C101.342 37.4979 107.611 29.925 82.4145 18.3806C57.2117 6.84094 58.178 11.2661 57.1075 14.8535C57.1075 14.8535 92.0006 22.9275 101.342 37.4979Z" fill="#D6D7CC"/>
<path d="M45.1831 16.9616C45.1831 16.9616 48.5076 5.26967 77.8588 19.955C107.216 34.6412 106.521 32.6425 105.807 41.5378L45.1831 16.9616Z" fill="#A4ADD5"/>
<path d="M76.0519 27.3836C76.0519 27.3836 77.6618 22.2547 88.8603 29.0792C100.064 35.9045 94.6567 36.1745 94.6567 36.1745L76.0519 27.3836Z" fill="#ECA250"/>
<path d="M54.7077 19.1119C54.7077 19.1119 56.3422 13.6453 66.8719 18.9278L67.6527 23.8808L54.7077 19.1119Z" fill="#ECA250"/>
<mask id="mask0_3326_6637" style="mask-type:luminance" maskUnits="userSpaceOnUse" x="13" y="7" width="98" height="51">
<path d="M18.7471 7.97656L110.038 20.6999L104.947 57.2228L13.6568 44.4994L18.7471 7.97656Z" fill="white"/>
</mask>
<g mask="url(#mask0_3326_6637)">
<path d="M18.714 8.28572C18.714 8.28572 27.4446 30.731 30.0929 45.6439C30.0929 45.6439 78.8537 54.2746 104.088 55.196C104.088 55.196 107.493 44.0075 106.517 40.7781C106.517 40.7781 43.0281 9.02298 18.714 8.28572Z" fill="#FEFCF6"/>
</g>
<path d="M66.2764 35.9955C65.9952 36.9297 65.02 37.465 64.0913 37.1845C63.1682 36.9048 62.6399 35.9194 62.9203 34.9908C63.1961 34.0559 64.1768 33.5213 65.0999 33.801C66.0285 34.0815 66.5521 35.0606 66.2764 35.9955Z" fill="#5B7383"/>
<path d="M59.5017 33.7981C59.226 34.733 58.2507 35.2683 57.3221 34.9879C56.3935 34.7074 55.8706 33.7227 56.1464 32.7879C56.4268 31.8592 57.402 31.3239 58.3307 31.6043C59.2538 31.884 59.7829 32.864 59.5017 33.7981Z" fill="#5B7383"/>
<path d="M76.8666 38.8087C76.7 39.3616 76.1252 39.6731 75.5777 39.5073C75.0295 39.347 74.7243 38.7674 74.8909 38.2145C75.0512 37.6663 75.6268 37.3493 76.1742 37.5151C76.7162 37.6802 77.0269 38.2605 76.8666 38.8087Z" fill="#5B7383"/>
<path d="M75.5521 23.4666C75.3863 24.0141 74.8107 24.331 74.2633 24.1652C73.7213 24.0002 73.4106 23.4199 73.5709 22.8716C73.7375 22.3187 74.3123 22.0072 74.8543 22.1723C75.4072 22.3388 75.7132 22.9129 75.5521 23.4666Z" fill="#5B7383"/>
<path d="M71.6461 37.4934C71.4377 38.1859 70.7174 38.5778 70.0296 38.3756C69.3425 38.168 68.9522 37.4368 69.1598 36.7497C69.369 36.0516 70.0893 35.6598 70.7763 35.8674C71.4634 36.075 71.8545 36.8008 71.6461 37.4934Z" fill="#5B7383"/>
<path d="M81.1016 39.9577C80.9568 40.4353 80.4602 40.7074 79.988 40.5632C79.5213 40.4199 79.2548 39.924 79.3942 39.4456C79.5391 38.968 80.0294 38.7007 80.5016 38.8448C80.9745 38.9834 81.2403 39.4848 81.1016 39.9577Z" fill="#5B7383"/>
<path d="M100.061 34.8487C99.9166 35.3263 99.42 35.5983 98.9486 35.4487C98.4756 35.3101 98.2099 34.8088 98.354 34.3366C98.4934 33.8582 98.9892 33.5917 99.4622 33.7303C99.9343 33.8744 100.2 34.3758 100.061 34.8487Z" fill="#5B7383"/>
<path d="M85.1652 40.9505C85.0521 41.3207 84.6649 41.5297 84.294 41.422C83.9238 41.3089 83.7211 40.9171 83.8287 40.5461C83.9418 40.1759 84.329 39.9669 84.6999 40.0746C85.0647 40.1869 85.2736 40.5741 85.1652 40.9505Z" fill="#5B7383"/>
<path d="M88.7408 41.946C88.6448 42.2738 88.2944 42.4599 87.9674 42.3584C87.645 42.2631 87.4589 41.9127 87.5549 41.5849C87.651 41.2571 87.9959 41.0702 88.3237 41.1662C88.657 41.263 88.8377 41.6127 88.7408 41.946Z" fill="#5B7383"/>
<path d="M90.7602 42.4669C90.675 42.7571 90.8398 43.0597 91.1245 43.1442C91.4139 43.2349 91.7166 43.0701 91.8018 42.7799C91.887 42.4897 91.7222 42.187 91.4382 42.0971C91.1473 42.0174 90.8454 42.1767 90.7602 42.4669Z" fill="#5B7383"/>
<path d="M94.4652 43.5824C94.38 43.8726 94.5393 44.1745 94.8295 44.2596C95.1135 44.3496 95.4169 44.1793 95.5013 43.8946C95.592 43.6052 95.4272 43.3025 95.1378 43.2118C94.8531 43.1274 94.5504 43.2922 94.4652 43.5824Z" fill="#5B7383"/>
<path d="M85.8254 17.9441C85.8254 17.9441 86.3117 14.6556 89.8428 17.1335C93.3794 19.6122 91.4542 21.6261 91.4542 21.6261L85.8254 17.9441Z" fill="#5E5A4F"/>
<path d="M82.6827 12.4495C82.6827 12.4495 74.1817 9.02721 69.9142 11.4307L79.9104 14.4405C79.9104 14.4405 81.6469 13.8211 82.6827 12.4495Z" fill="#5E5A4F"/>
<path d="M71.8199 21.8716C71.613 22.5532 70.9045 22.9411 70.2284 22.735C69.557 22.5351 69.1754 21.8219 69.3768 21.1395C69.5781 20.4572 70.2914 20.0755 70.9628 20.2754C71.6396 20.476 72.0205 21.1948 71.8199 21.8716Z" fill="#5B7383"/>
<path d="M22.0983 14.8473L21.2516 15.1432L22.0048 17.2843L23.0434 16.976C23.0434 16.976 93.9778 38.2512 106.431 45.2618C106.431 45.2618 106.609 44.4307 106.6 43.9316C106.6 43.9316 31.0207 14.7651 22.0983 14.8473Z" fill="#5B7383"/>
<mask id="mask1_3326_6637" style="mask-type:luminance" maskUnits="userSpaceOnUse" x="13" y="7" width="26" height="39">
<path d="M18.7471 7.97656L38.3967 10.7152L33.5023 45.8333L13.8526 43.0947L18.7471 7.97656Z" fill="white"/>
</mask>
<g mask="url(#mask1_3326_6637)">
<path d="M19.5381 9.44043C19.5381 9.44043 24.821 18.7352 28.7961 29.6266C30.3874 33.9822 33.1446 42.9361 32.3861 44.2848C31.4944 45.8666 30.8345 43.2966 28.5159 34.7674C27.1574 29.745 23.0597 16.9235 19.5381 9.44043Z" fill="#A9AFB1"/>
</g>
<path d="M109.691 56.5906C109.691 56.5906 41.4466 61.2091 26.7633 44.8705C18.8841 36.1033 27.254 39.4234 36.5104 44.9312C45.7606 50.4438 44.5157 47.0147 47.9353 45.5167C51.3596 44.0249 57.568 47.8829 59.4177 49.4216C61.2728 50.9612 64.1727 47.3322 68.7814 48.9422C73.4598 50.5732 74.6418 52.7685 79.4076 52.2077C84.1733 51.6468 83.6008 48.4905 89.6222 50.5995C95.6444 52.703 98.6795 54.0042 100.909 52.1726C103.145 50.3417 109.691 56.5906 109.691 56.5906Z" fill="#548FD3"/>
<path d="M109.69 56.5902C109.69 56.5902 40.8379 65.5711 24.0801 48.1435C15.9174 39.6444 26.9673 41.4753 36.2237 46.9831C45.4739 52.4956 44.2297 49.061 47.6485 47.5685C51.0729 46.0768 57.2821 49.9292 59.1309 51.4735C60.9861 53.013 62.7118 49.019 68.4954 50.9886C73.1832 52.5929 74.3551 54.8203 79.1208 54.2595C83.8874 53.6932 83.314 50.5423 89.3362 52.6458C95.3577 54.7549 98.3935 56.0506 100.623 54.219C102.858 52.3936 109.69 56.5902 109.69 56.5902Z" fill="#90C8D0"/>
<mask id="mask2_3326_6637" style="mask-type:luminance" maskUnits="userSpaceOnUse" x="20" y="42" width="91" height="26">
<path d="M22.46 42.8604L110.974 55.1967L109.212 67.8393L20.6979 55.5029L22.46 42.8604Z" fill="white"/>
</mask>
<g mask="url(#mask2_3326_6637)">
<path d="M110.748 56.7372C110.748 56.7372 89.762 60.5753 66.7397 60.0013C54.1585 59.6854 30.8982 58.049 27.1107 52.9957C16.6414 39.0121 29.6929 45.5859 35.7589 49.2617C38.9827 51.2158 43.4408 52.3406 46.7744 50.6572C50.1087 48.9683 56.5235 52.469 58.4543 53.9072C60.3914 55.3407 61.8951 51.2542 67.7802 52.8967C72.5446 54.232 73.8432 56.3932 78.5688 55.5583C83.2984 54.7351 82.5529 51.6161 88.6836 53.3824C94.8144 55.1486 99.252 56.7013 101.381 54.7493C103.51 52.7974 110.748 56.7372 110.748 56.7372Z" fill="#548FD3"/>
</g>
<defs>
<radialGradient id="paint0_radial_3326_6637" cx="0" cy="0" r="1" gradientUnits="userSpaceOnUse" gradientTransform="translate(68.8301 60.8506) rotate(90) scale(13 68)">
<stop stop-color="#121212"/>
<stop offset="0.947917" stop-color="#121212" stop-opacity="0"/>
</radialGradient>
<radialGradient id="paint1_radial_3326_6637" cx="0" cy="0" r="1" gradientUnits="userSpaceOnUse" gradientTransform="translate(68.8301 60.8506) rotate(90) scale(12 63)">
<stop stop-color="#121212"/>
<stop offset="0.947917" stop-color="#121212" stop-opacity="0"/>
</radialGradient>
<radialGradient id="paint2_radial_3326_6637" cx="0" cy="0" r="1" gradientUnits="userSpaceOnUse" gradientTransform="translate(68.8301 60.8506) rotate(90) scale(11 59)">
<stop stop-color="#121212"/>
<stop offset="0.947917" stop-color="#121212" stop-opacity="0"/>
</radialGradient>
<radialGradient id="paint3_radial_3326_6637" cx="0" cy="0" r="1" gradientUnits="userSpaceOnUse" gradientTransform="translate(68.8301 60.8506) rotate(90) scale(10 55)">
<stop stop-color="#121212"/>
<stop offset="0.947917" stop-color="#121212" stop-opacity="0"/>
</radialGradient>
<radialGradient id="paint4_radial_3326_6637" cx="0" cy="0" r="1" gradientUnits="userSpaceOnUse" gradientTransform="translate(68.8301 60.8506) rotate(90) scale(10 50)">
<stop stop-color="#121212"/>
<stop offset="0.947917" stop-color="#121212" stop-opacity="0"/>
</radialGradient>
<radialGradient id="paint5_radial_3326_6637" cx="0" cy="0" r="1" gradientUnits="userSpaceOnUse" gradientTransform="translate(68.8301 60.8506) rotate(90) scale(10 50)">
<stop offset="0.630208" stop-color="#121212"/>
<stop offset="0.947917" stop-color="#121212" stop-opacity="0"/>
</radialGradient>
</defs>
</svg>
